(this["webpackJsonpportfolio-test"]=this["webpackJsonpportfolio-test"]||[]).push([[0],{64:function(q){q.exports=JSON.parse('{"glyphs":{"0":{"ha":992,"x_min":-118,"x_max":990,"o":"m 393 699 q 460 741 425 719 q 535 786 496 763 l 563 803 q 496 814 538 814 q 406 776 415 814 q 393 699 397 750 m 389 447 q 444 501 417 475 q 499 550 472 526 q 551 597 525 574 q 604 640 576 619 q 597 722 601 688 q 586 776 593 756 q 568 800 583 788 l 538 781 q 462 735 497 757 q 392 692 426 713 q 388 546 388 633 q 388 493 388 518 q 389 447 388 469 m 499 278 q 547 326 522 303 q 597 369 572 350 q 606 546 606 433 q 606 592 606 569 q 604 633 606 614 q 553 592 578 614 q 501 547 528 571 q 390 440 449 499 q 406 315 394 356 q 496 278 418 278 l 499 278 m 596 361 q 550 322 572 342 q 506 278 528 301 q 586 315 574 279 q 596 361 592 331 m 986 236 q 946 227 965 232 q 908 217 926 222 q 854 124 885 161 l 854 125 q 615 -7 772 18 q 593 -51 604 -29 q 571 -96 582 -72 q 543 -143 557 -121 q 538 -144 540 -146 q 538 -140 536 -143 q 565 -93 553 -117 q 589 -46 578 -69 q 598 -27 593 -36 q 608 -8 603 -18 q 496 -17 556 -17 q 308 8 388 -17 q 278 -37 293 -14 q 253 -85 264 -60 q 249 -86 251 -87 q 247 -82 246 -85 q 273 -35 258 -57 q 303 11 288 -12 q 138 125 197 44 l 132 133 l 90 63 q 50 8 71 33 q 3 -29 29 -17 q -1 -28 0 -31 q 0 -24 -3 -25 q 38 3 21 -14 q 70 42 56 21 q 98 86 85 64 q 122 128 111 108 l 128 138 q 42 379 65 228 q -13 310 14 344 q -62 238 -40 276 q -73 215 -69 226 q -81 192 -76 203 q -90 172 -85 181 q -101 160 -94 163 q -106 161 -104 158 q -104 165 -107 164 q -96 173 -100 167 q -88 188 -92 179 q -82 204 -85 196 q -78 217 -79 213 q -73 229 -75 224 q -68 240 -71 235 q -16 315 -44 281 q 40 386 13 350 q 33 463 35 422 q 31 546 31 503 q 33 631 31 590 q 42 710 36 672 q 19 695 31 703 q -4 678 7 688 q -39 640 -24 663 q -67 594 -54 618 q -90 544 -79 569 q -111 497 -100 519 q -115 496 -112 494 q -117 500 -118 497 q -94 548 -106 522 q -71 598 -83 574 q -43 644 -58 622 q -7 683 -28 667 q 17 701 6 693 q 42 718 29 710 q 65 822 51 775 q 100 910 79 869 l 93 903 q 56 865 76 883 q 15 828 35 847 q -23 788 -6 808 q -50 743 -40 767 q -54 742 -51 740 q -56 746 -57 743 q -27 792 -44 771 q 10 831 -10 813 q 51 868 31 850 q 90 906 72 886 q 101 918 96 913 q 111 929 106 924 q 138 968 124 951 q 353 1096 213 1064 q 469 1138 408 1119 q 596 1176 529 1157 q 600 1175 599 1178 q 599 1171 601 1172 q 484 1137 538 1153 q 381 1101 431 1121 q 496 1110 435 1110 q 751 1054 653 1110 q 784 1069 768 1061 q 817 1086 800 1078 q 821 1085 819 1088 q 819 1081 822 1082 q 789 1066 804 1074 q 758 1051 774 1058 q 854 967 815 1018 l 854 968 l 856 967 q 932 996 897 985 q 936 994 935 997 q 935 990 938 992 q 897 976 915 983 q 858 963 878 969 q 921 840 899 910 q 925 840 924 842 q 924 835 926 838 q 947 738 938 790 q 958 626 956 686 q 972 636 965 632 q 985 646 978 640 q 989 645 988 647 q 988 640 990 643 q 974 630 981 635 q 960 619 967 625 q 961 583 961 601 q 961 546 961 565 q 911 224 961 349 q 947 233 928 229 q 986 242 965 238 q 989 240 989 243 q 986 236 989 238 m 315 1149 q 281 1122 300 1132 q 243 1104 263 1111 q 203 1092 224 1097 q 161 1081 182 1088 q 101 1051 126 1069 q 47 1010 75 1033 q 43 1010 44 1008 q 44 1015 42 1013 q 98 1056 72 1038 q 158 1086 124 1074 q 199 1098 178 1093 q 240 1110 219 1103 q 278 1126 260 1117 q 313 1151 297 1136 q 316 1153 314 1154 q 315 1149 318 1151 "},"1":{"ha":606,"x_min":31,"x_max":628,"o":"m 132 265 l 132 258 l 132 254 l 132 265 m 132 307 q 135 323 135 315 q 139 338 136 331 q 167 449 151 390 q 194 561 182 507 q 209 636 204 601 q 217 704 214 671 q 110 661 167 681 q 108 601 108 632 q 108 542 108 572 q 110 488 108 518 q 116 425 113 457 q 124 363 119 393 q 132 307 128 332 m 603 124 q 589 97 596 110 q 575 71 582 83 l 575 42 q 566 15 575 26 q 542 0 557 3 q 512 -78 526 -37 q 482 -167 497 -118 q 478 -168 481 -169 q 476 -164 475 -167 q 506 -76 492 -115 q 536 0 521 -37 l 393 0 q 383 -22 388 -11 q 371 -44 378 -33 q 335 -98 351 -76 q 300 -151 318 -119 q 288 -177 293 -164 q 276 -203 282 -190 q 265 -224 271 -214 q 251 -237 258 -233 q 247 -237 249 -239 q 249 -232 246 -235 q 271 -200 260 -226 q 282 -175 276 -189 q 294 -149 288 -161 q 329 -95 313 -117 q 365 -42 346 -74 q 377 -21 372 -31 q 388 0 382 -11 l 286 0 q 265 7 275 0 q 243 -24 254 -8 q 222 -56 232 -39 q 217 -57 219 -58 q 217 -53 215 -56 q 238 -20 228 -36 q 260 11 249 -4 q 247 42 247 24 l 247 125 l 247 124 q 235 90 242 108 q 219 51 228 71 q 202 13 211 31 q 182 -15 193 -4 q 178 -17 181 -18 q 179 -12 176 -15 q 198 16 189 -1 q 215 53 207 33 q 229 93 222 74 q 242 126 236 113 l 247 140 l 247 539 q 238 448 242 492 q 233 360 235 404 q 230 267 231 315 q 229 163 229 218 q 228 134 229 150 q 226 103 228 118 q 219 75 224 88 q 208 57 215 63 q 204 56 206 54 q 206 60 203 58 q 215 78 211 65 q 220 105 218 90 q 223 135 222 119 q 224 163 224 150 q 224 278 224 225 q 228 380 225 331 q 235 478 231 429 q 247 581 239 526 l 247 721 q 235 713 240 717 q 222 707 229 710 q 215 637 219 672 q 200 561 210 601 q 172 449 188 507 q 144 338 157 390 q 140 313 142 325 q 135 289 138 301 q 138 265 138 274 q 136 242 139 256 l 136 239 q 129 239 133 233 q 126 192 126 215 q 124 147 125 169 q 115 46 121 96 q 99 -49 110 -4 q 90 -94 92 -71 q 78 -139 88 -117 q 74 -141 76 -142 q 71 -137 71 -140 l 71 -136 q 72 -128 71 -132 q 72 -119 72 -124 q 71 -114 67 -118 q 76 -117 75 -110 l 78 -119 l 78 -124 q 81 -109 81 -117 q 83 -94 82 -101 q 88 -72 86 -83 q 93 -46 89 -61 q 110 47 104 -3 q 118 147 115 96 q 126 257 121 203 q 125 263 125 260 q 124 269 125 267 q 128 272 124 272 q 128 281 128 276 q 129 289 129 285 l 129 293 q 121 350 125 318 q 113 416 117 382 q 106 483 108 450 q 103 542 103 517 q 103 601 103 572 q 104 660 103 631 q 92 656 97 657 q 81 653 88 656 q 46 659 61 646 q 31 694 31 672 l 31 913 q 40 939 31 928 q 63 953 50 950 q 94 960 79 956 q 125 968 110 964 q 127 992 126 979 q 131 1017 128 1004 q 138 1062 135 1044 q 147 1107 142 1079 q 150 1110 149 1110 q 153 1107 153 1110 q 143 1062 147 1079 q 136 1017 139 1044 q 133 992 133 1004 q 131 969 132 981 q 178 984 157 976 q 217 1000 200 992 q 222 1002 219 1001 q 226 1006 224 1003 q 233 1062 229 1033 q 244 1119 238 1090 q 257 1160 250 1143 q 268 1200 264 1176 q 271 1203 268 1203 q 274 1200 274 1203 q 263 1159 269 1176 q 250 1119 256 1142 q 233 1008 238 1060 q 277 1042 254 1022 q 326 1089 300 1063 l 342 1089 q 346 1121 344 1104 q 349 1157 347 1138 q 351 1160 349 1160 q 354 1157 354 1160 q 351 1121 353 1138 q 347 1089 350 1104 l 501 1089 q 510 1116 506 1103 q 517 1143 514 1129 q 521 1146 518 1146 q 522 1143 524 1146 q 515 1115 519 1128 q 507 1089 511 1101 l 536 1089 q 565 1075 554 1089 q 576 1105 571 1090 q 588 1135 582 1119 q 592 1136 589 1138 q 593 1132 594 1135 q 581 1101 588 1117 q 569 1069 575 1085 q 574 1059 572 1064 q 575 1047 575 1054 l 575 822 q 598 846 586 833 q 622 869 610 858 q 626 870 625 872 q 625 867 628 868 q 599 841 611 854 q 575 814 588 828 l 575 625 q 604 675 589 647 q 609 676 607 678 q 610 672 611 675 q 592 642 600 657 q 575 614 583 628 l 575 453 l 590 490 q 594 492 592 493 q 596 488 597 490 q 585 464 590 476 q 575 439 581 451 l 575 228 q 581 244 578 236 q 588 260 585 251 q 592 261 589 263 q 593 257 594 260 q 585 236 589 246 q 575 215 581 226 l 575 83 q 585 105 581 94 q 597 126 590 115 q 602 128 600 129 q 603 124 604 126 "},"2":{"ha":939,"x_min":31,"x_max":908,"o":"m 294 435 q 316 599 306 517 q 342 783 326 681 l 344 800 q 302 783 324 793 q 258 757 281 772 q 238 743 247 750 q 219 729 228 736 q 216 575 217 651 q 213 401 215 499 q 212 379 213 390 q 211 357 211 368 l 294 435 m 393 526 q 405 595 399 560 q 419 669 411 631 q 436 742 428 708 q 453 811 444 775 q 438 813 446 813 q 424 814 431 814 q 350 803 390 814 l 347 783 q 322 602 332 683 q 301 442 311 521 l 393 526 m 458 810 q 442 740 450 774 q 425 669 433 707 q 410 598 417 632 q 400 532 404 564 l 432 563 l 431 563 q 503 647 463 594 q 531 719 531 683 q 458 810 531 794 m 694 308 q 703 374 699 340 q 711 439 707 407 q 646 369 674 397 l 646 371 q 613 338 629 353 q 582 308 597 324 l 694 308 m 775 308 q 791 429 783 368 q 807 550 799 490 l 799 540 q 756 490 776 513 q 718 446 736 467 q 709 377 714 411 q 700 308 704 343 l 775 308 m 156 0 q 153 -17 154 -8 q 153 -33 153 -25 q 154 -87 153 -62 q 158 -133 156 -112 q 156 -136 158 -136 q 153 -133 153 -136 q 149 -87 150 -112 q 147 -33 147 -62 q 148 -17 147 -25 q 150 0 149 -8 l 94 0 q 87 -65 90 -33 q 78 -125 83 -97 q 74 -128 76 -128 q 72 -125 72 -128 q 81 -65 78 -97 q 89 0 85 -32 l 72 0 q 43 13 56 0 q 31 42 31 25 l 31 172 q 35 188 31 178 q 44 203 40 199 l 146 297 q 151 337 149 317 q 153 381 153 357 q 156 383 153 383 q 158 381 158 383 q 157 340 158 360 q 153 303 156 321 l 204 351 q 206 375 206 363 q 207 401 207 388 q 210 572 210 497 q 213 725 210 649 q 184 702 197 713 q 161 681 171 692 q 158 573 161 626 q 153 471 156 519 q 150 468 153 468 q 147 471 147 468 q 153 571 150 519 q 156 675 156 622 q 139 656 147 667 q 117 640 131 643 q 93 640 104 636 q 74 655 82 644 q 65 681 65 665 l 65 938 q 69 955 65 944 q 78 968 74 965 q 117 997 93 983 q 110 1034 113 1015 q 107 1076 107 1053 q 110 1079 107 1079 q 113 1076 113 1079 q 115 1036 113 1054 q 121 1000 118 1018 q 240 1057 167 1026 l 249 1060 q 253 1081 251 1071 q 257 1104 254 1092 q 260 1107 257 1107 q 263 1104 263 1107 q 254 1063 258 1081 q 396 1100 322 1089 l 399 1114 q 401 1117 400 1117 q 404 1114 404 1117 l 401 1101 q 449 1106 425 1104 q 499 1108 474 1108 q 517 1108 508 1108 q 536 1107 526 1108 q 547 1131 542 1119 q 557 1156 551 1143 q 561 1157 558 1158 q 563 1153 564 1156 l 542 1107 q 721 1065 643 1100 q 730 1092 725 1079 q 739 1121 735 1106 q 743 1122 740 1124 q 744 1118 746 1121 q 725 1063 736 1093 q 751 1050 739 1057 q 774 1036 763 1043 q 783 1063 778 1050 q 792 1090 788 1076 q 796 1092 793 1093 q 797 1088 799 1090 q 788 1061 792 1075 q 778 1033 783 1047 l 783 1029 q 804 1014 794 1022 q 822 996 814 1006 q 827 1015 825 1006 q 832 1033 829 1024 q 836 1036 833 1036 q 838 1033 839 1036 q 832 1012 835 1022 q 826 992 829 1001 q 864 942 849 968 q 867 981 867 961 q 869 1019 868 1000 q 872 1022 869 1022 q 875 1019 875 1022 q 873 975 874 996 q 869 933 872 954 q 900 797 900 874 q 814 558 900 672 q 798 433 806 496 q 781 308 790 371 l 867 308 q 896 296 883 308 q 908 265 908 283 l 908 42 q 896 13 908 25 q 867 0 883 0 l 740 0 q 734 -37 738 -19 q 724 -71 731 -56 q 719 -72 722 -74 q 718 -68 717 -71 q 728 -36 725 -53 q 735 0 732 -19 l 646 0 q 641 -12 643 -7 q 636 -25 639 -18 q 622 -64 629 -44 q 610 -104 615 -83 q 606 -107 608 -107 q 604 -104 603 -107 q 617 -62 610 -82 q 632 -22 624 -43 q 636 -12 635 -17 q 640 0 638 -7 l 519 0 q 508 -74 513 -37 q 496 -151 504 -110 q 492 -154 494 -154 q 490 -151 490 -154 q 503 -72 499 -108 q 514 0 507 -36 l 433 0 q 422 -32 428 -15 q 411 -64 417 -49 q 405 -89 408 -78 q 400 -111 401 -100 q 397 -114 400 -114 q 394 -111 394 -114 q 408 -58 399 -85 q 425 -7 417 -32 l 428 0 l 315 0 q 294 -65 304 -32 q 274 -135 283 -99 q 269 -136 272 -137 q 268 -132 267 -135 q 288 -64 278 -96 q 310 0 299 -32 l 253 0 q 247 -62 250 -32 q 236 -119 243 -92 q 232 -121 235 -122 q 231 -117 229 -119 q 241 -61 238 -90 q 247 0 244 -32 l 156 0 "},"3":{"ha":954,"x_min":17,"x_max":939,"o":"m 22 229 q 35 217 29 222 q 46 207 40 213 l 72 271 q 62 292 67 282 q 53 313 57 301 q 54 317 51 315 q 58 315 57 318 q 67 296 63 304 q 75 278 71 288 l 97 332 q 54 375 75 351 q 53 379 51 378 q 57 378 56 381 q 78 357 68 367 q 100 338 89 347 l 114 372 q 140 397 122 392 q 174 392 158 403 q 218 367 189 382 q 292 329 247 353 q 450 290 361 294 q 364 343 413 319 q 290 378 325 363 q 219 410 254 393 q 149 445 183 426 q 76 492 114 464 q 75 497 74 494 q 79 497 76 499 q 151 450 117 469 q 221 414 186 431 q 292 383 257 399 q 367 349 326 368 q 460 290 415 325 l 475 290 q 547 307 519 290 q 574 356 574 324 q 538 417 574 389 q 347 451 497 447 q 318 464 329 451 q 307 494 307 476 l 307 519 q 256 521 282 521 q 203 522 229 521 q 151 528 176 524 q 104 542 126 532 q 103 546 101 543 q 107 547 104 549 q 153 533 128 538 q 203 528 178 529 q 256 526 229 526 q 306 525 282 526 l 306 636 q 310 652 306 642 q 318 665 315 663 l 354 693 l 349 690 q 278 667 313 678 q 210 650 244 657 q 137 639 175 643 q 56 633 99 635 q 53 636 53 633 q 56 639 53 639 q 136 644 99 640 q 208 656 174 649 q 276 673 243 663 q 346 696 310 683 l 368 703 l 488 796 l 319 796 q 192 763 257 779 q 58 731 128 746 q 56 732 56 729 q 58 736 56 735 q 181 765 121 750 q 299 796 240 781 l 119 796 q 90 808 101 796 q 78 838 78 819 l 78 858 q 56 853 67 856 q 35 849 46 851 q 32 850 32 849 q 35 854 32 853 q 56 860 46 857 q 78 865 67 863 l 78 1008 q 63 1006 71 1007 q 49 1003 56 1004 q 46 1004 46 1003 q 49 1008 46 1007 q 63 1011 56 1010 q 76 1014 69 1013 l 76 1049 q 89 1078 76 1065 q 118 1090 101 1090 l 425 1090 q 442 1096 433 1093 q 461 1103 451 1099 q 515 1125 489 1113 q 566 1149 540 1138 q 619 1169 592 1160 q 676 1181 646 1178 q 679 1178 679 1181 q 676 1175 679 1175 q 619 1163 646 1172 q 567 1143 593 1154 q 516 1119 542 1132 q 464 1097 490 1107 q 453 1094 458 1094 q 443 1090 449 1093 l 553 1090 q 667 1135 613 1115 q 792 1156 721 1156 q 860 1154 831 1156 q 924 1150 889 1153 q 926 1147 926 1150 q 924 1144 926 1144 q 860 1149 889 1147 q 792 1150 831 1150 q 674 1132 725 1150 q 567 1090 622 1114 l 817 1090 q 846 1078 833 1090 q 858 1049 858 1065 l 858 935 q 908 932 881 936 q 911 929 911 932 q 908 926 911 926 q 860 929 879 931 l 860 878 q 855 860 860 871 q 847 847 850 850 l 690 700 q 699 697 694 697 q 708 693 703 696 q 802 662 754 674 q 899 639 850 650 q 901 635 901 638 q 899 633 901 632 q 801 656 850 644 q 706 688 753 668 q 686 696 692 693 l 646 658 q 914 424 874 610 l 936 424 q 939 421 939 424 q 936 418 939 418 l 915 418 q 920 383 918 401 q 922 344 922 364 q 885 167 922 240 q 775 50 847 94 q 843 -19 811 18 q 907 -92 875 -56 q 908 -96 910 -94 q 904 -94 906 -97 q 839 -22 871 -58 q 771 47 807 15 q 531 -15 678 -7 q 576 -60 554 -39 q 621 -106 599 -81 q 657 -152 642 -128 q 699 -194 672 -176 q 700 -199 701 -197 q 696 -200 699 -201 q 653 -156 668 -181 q 618 -108 639 -132 q 572 -62 594 -83 q 524 -15 549 -40 q 500 -17 513 -17 q 478 -17 489 -17 q 239 22 346 -17 q 243 3 242 13 q 247 -17 244 -6 q 255 -103 254 -60 q 269 -187 256 -146 q 268 -192 271 -190 q 264 -190 265 -193 q 249 -103 250 -147 q 242 -17 249 -60 q 237 5 239 -6 q 232 25 235 15 q 215 31 224 28 q 199 39 207 35 q 149 62 171 51 q 107 83 126 72 q 110 66 110 75 q 113 47 111 57 q 118 -56 118 -3 q 125 -164 118 -110 q 122 -167 125 -167 q 119 -164 119 -167 q 113 -57 113 -111 q 107 47 114 -3 q 104 67 106 58 q 100 86 103 76 q 65 108 79 99 q 42 126 50 118 q 30 149 32 135 q 32 175 28 164 l 43 201 q 32 213 38 208 q 19 224 26 218 q 18 228 17 226 q 22 229 19 231 "},"4":{"ha":1029,"x_min":-19,"x_max":1024,"o":"m 328 461 l 328 472 q 328 489 328 481 q 329 506 328 497 l 293 461 l 328 461 m 335 513 q 333 493 333 503 q 333 472 333 483 l 333 461 l 503 461 l 503 719 l 335 513 m 1021 724 q 958 680 985 707 q 914 618 932 653 q 887 544 896 583 q 878 467 878 506 l 878 461 l 957 461 q 987 449 975 461 q 999 419 999 436 l 999 210 q 987 181 999 193 q 957 168 975 168 l 918 168 q 933 133 925 149 q 951 103 942 118 q 977 56 964 79 q 1006 1 990 32 q 1004 -3 1007 -1 q 1000 -1 1001 -4 q 973 53 986 29 q 946 100 960 76 q 911 168 926 133 l 856 167 l 856 49 q 865 29 860 39 q 913 -60 892 -22 q 963 -140 935 -99 q 962 -144 964 -143 q 957 -143 960 -146 q 908 -63 929 -101 q 860 26 886 -25 l 856 36 q 841 10 853 21 q 814 0 829 0 l 708 0 q 752 -100 728 -51 q 803 -174 776 -149 q 804 -177 806 -175 q 800 -176 803 -179 q 747 -101 772 -151 q 703 0 722 -51 l 544 0 q 515 13 528 0 q 503 42 503 25 l 503 167 l 458 167 l 461 160 q 481 95 476 128 q 492 28 485 63 q 506 -25 499 -1 q 522 -72 513 -49 q 541 -118 532 -96 q 560 -164 550 -140 q 558 -168 561 -167 q 554 -167 556 -169 q 535 -119 544 -142 q 517 -75 526 -97 q 501 -27 508 -51 q 486 28 493 -3 q 475 92 479 60 q 456 157 471 125 l 451 167 l 199 167 q 221 117 210 140 q 247 75 232 94 q 297 -10 276 35 q 350 -96 317 -56 q 361 -110 353 -100 q 378 -129 369 -119 q 395 -145 388 -139 q 406 -149 403 -151 q 408 -124 410 -144 q 411 -121 408 -121 q 414 -124 414 -121 q 414 -136 414 -129 q 412 -149 414 -143 q 405 -156 410 -154 q 392 -150 400 -157 q 368 -126 381 -142 q 344 -99 356 -110 q 292 -14 311 -60 q 242 72 272 32 q 216 115 228 92 q 193 167 204 139 l 74 167 q 78 149 76 156 q 91 75 85 114 q 106 -3 97 36 q 129 -78 115 -42 q 165 -143 143 -114 q 165 -147 167 -146 q 160 -146 163 -149 q 125 -79 139 -115 q 101 -4 111 -43 q 85 74 92 35 q 72 149 79 113 q 70 158 71 153 q 68 167 69 163 q 42 181 53 169 q 31 208 31 193 l 31 274 q 24 290 28 282 q 18 304 21 297 q -8 384 3 343 q -19 475 -19 425 q -10 553 -19 515 q 13 627 0 590 q 40 701 26 664 q 58 776 53 738 q 67 881 65 828 q 79 983 69 933 q 111 1075 89 1032 q 182 1147 133 1118 q 186 1147 185 1149 q 185 1142 188 1144 q 115 1072 138 1114 q 85 982 93 1031 q 73 880 75 933 q 64 776 71 826 q 45 701 58 738 q 19 627 32 664 q -4 553 6 590 q -14 475 -14 515 q -1 376 -14 419 q 31 289 13 332 l 31 464 l 138 597 q 151 708 143 653 q 163 818 160 763 q 170 890 165 854 q 190 954 175 925 q 242 1013 207 985 q 319 1066 278 1042 q 404 1108 361 1090 q 481 1136 447 1125 q 485 1135 483 1138 q 483 1131 486 1132 q 407 1102 450 1119 q 322 1061 364 1085 q 247 1010 281 1038 q 196 951 213 982 q 176 889 181 924 q 168 818 171 854 q 158 712 165 765 q 144 606 150 658 l 519 1074 q 535 1084 524 1079 q 553 1089 546 1089 l 585 1089 q 613 1129 600 1108 q 638 1172 626 1150 q 642 1174 639 1175 q 643 1169 644 1172 q 619 1128 632 1149 q 592 1089 606 1108 l 747 1089 q 760 1123 754 1106 q 772 1158 765 1140 q 776 1160 774 1161 q 778 1156 779 1158 l 753 1089 l 814 1089 q 843 1076 831 1089 q 856 1047 856 1064 l 856 914 q 881 956 868 935 q 907 1000 894 978 q 946 1055 925 1028 q 978 1114 967 1082 q 982 1115 979 1117 q 983 1111 985 1114 q 951 1053 972 1079 q 913 997 929 1026 q 883 950 897 974 q 856 903 869 926 l 856 461 l 872 461 l 872 467 q 908 621 872 549 q 1018 729 944 693 q 1022 728 1021 731 q 1021 724 1024 725 "},"5":{"ha":997,"x_min":-15,"x_max":967,"o":"m 501 731 q 495 769 499 750 q 488 808 492 789 l 399 808 l 388 719 q 444 728 415 726 q 501 731 474 731 m 468 272 q 481 366 475 321 q 492 457 486 411 l 486 457 q 353 436 408 457 q 334 435 346 433 q 317 440 322 436 l 253 481 q 245 406 247 444 q 239 336 243 368 q 238 328 238 332 q 236 321 238 324 l 274 306 q 367 280 321 288 q 461 272 413 272 l 468 272 m 497 457 q 486 366 492 411 q 474 272 481 321 q 574 300 536 275 q 613 367 613 325 q 581 429 613 404 q 497 457 550 454 m 650 718 q 651 764 651 742 q 649 808 651 786 l 493 808 q 501 769 497 789 q 507 731 504 750 l 508 731 q 650 718 585 731 m 790 668 q 810 738 800 706 q 822 808 819 771 l 654 808 q 657 763 657 786 q 656 717 657 740 q 790 668 731 701 m 954 456 q 959 511 957 483 q 961 571 961 539 q 949 739 961 657 q 911 900 938 821 l 911 850 q 899 821 911 833 q 869 808 886 808 l 828 808 q 824 774 826 790 q 817 742 821 758 q 806 703 811 722 q 796 665 801 685 q 897 578 857 631 q 954 456 938 525 m 760 1175 q 792 1131 775 1151 q 824 1090 808 1111 l 868 1090 q 898 1078 885 1090 q 911 1049 911 1065 l 911 917 q 953 749 940 835 q 967 571 967 663 q 964 502 967 535 q 958 439 961 469 q 963 397 961 418 q 965 351 965 375 q 901 138 965 222 q 887 -9 890 69 q 878 -154 883 -87 q 874 -157 876 -157 q 872 -154 871 -157 q 880 -13 876 -89 q 894 129 883 63 q 744 25 840 63 q 756 -14 751 6 q 764 -54 760 -33 q 769 -91 767 -72 q 775 -126 772 -110 q 785 -156 779 -143 q 800 -175 790 -168 q 801 -180 803 -178 q 796 -181 799 -182 q 779 -158 785 -172 q 769 -126 774 -143 q 764 -92 767 -110 q 758 -54 761 -74 q 750 -15 754 -35 q 740 24 746 4 q 700 10 721 17 q 657 0 679 4 q 647 -80 651 -40 q 640 -158 643 -119 q 638 -161 640 -161 q 635 -158 635 -161 q 642 -81 638 -119 q 650 -1 646 -42 q 569 -12 611 -8 q 478 -17 526 -17 l 436 -17 q 426 -69 431 -43 q 418 -128 421 -96 q 414 -131 417 -131 q 413 -128 411 -131 q 420 -69 415 -96 q 431 -15 425 -43 q 213 14 311 -14 l 190 19 q 181 -62 188 -22 q 158 -132 174 -103 q 155 -133 157 -135 q 154 -129 153 -132 q 175 -61 168 -101 q 185 22 182 -21 q 106 48 138 36 q 54 68 74 60 q 33 91 40 75 q 32 122 26 107 l 108 326 q 133 352 115 346 q 167 347 150 358 q 188 340 172 346 q 231 322 204 333 q 232 329 232 326 q 233 336 232 333 q 240 408 238 369 q 247 485 243 447 l 139 553 q 122 483 129 515 q 108 420 115 451 q 93 356 101 389 q 72 285 85 324 q 42 183 54 232 q 18 75 31 133 q 8 25 13 50 q -3 -25 4 0 q -6 -33 -4 -28 q -11 -40 -8 -39 q -15 -38 -14 -40 q -12 -35 -15 -36 q -6 -15 -10 -31 q 1 19 -3 0 q 8 54 6 38 q 13 75 11 71 q 37 183 25 133 q 67 288 49 233 q 88 359 79 326 q 103 423 96 392 q 118 487 111 454 q 135 557 125 519 q 117 594 117 572 l 167 1053 q 168 1057 168 1056 q 169 1060 168 1058 q 161 1069 167 1064 q 99 1119 136 1097 q 31 1161 63 1142 q 29 1166 28 1164 q 33 1167 31 1168 q 113 1117 78 1139 q 171 1067 147 1096 q 208 1090 182 1090 l 251 1090 q 214 1146 232 1118 q 186 1206 196 1174 q 188 1210 185 1208 q 192 1208 190 1211 q 220 1147 201 1175 q 258 1090 239 1118 l 371 1090 q 340 1133 357 1114 q 314 1179 324 1151 q 315 1183 313 1182 q 319 1182 318 1185 q 346 1134 328 1154 q 376 1090 364 1114 l 497 1090 q 465 1135 482 1113 q 426 1182 447 1157 q 426 1186 424 1185 q 431 1185 429 1188 q 470 1136 453 1158 q 504 1090 488 1114 l 651 1090 q 594 1128 621 1107 q 543 1182 567 1149 q 543 1186 540 1185 q 547 1185 546 1188 q 601 1129 571 1150 q 663 1090 631 1108 l 817 1090 q 786 1130 801 1110 q 756 1172 771 1150 q 756 1176 754 1175 q 760 1175 758 1178 "},"6":{"ha":982,"x_min":11,"x_max":958,"o":"m 546 719 q 572 783 558 751 q 597 847 586 815 q 563 849 581 849 q 525 850 544 850 q 393 772 426 850 q 381 735 386 754 q 372 694 376 717 q 544 719 447 719 l 546 719 m 438 247 q 454 365 444 310 q 478 478 464 419 q 396 451 431 475 l 397 451 q 378 430 386 443 q 365 396 371 417 q 388 282 375 306 l 386 282 q 438 247 399 257 m 483 478 q 460 365 469 419 q 443 246 450 310 q 492 242 464 242 q 583 272 550 242 q 615 357 615 303 q 584 448 615 417 q 490 478 553 479 l 483 478 m 603 847 l 603 846 q 578 783 592 815 q 551 719 564 751 q 764 676 678 717 q 774 735 769 706 q 783 794 778 764 q 738 812 760 804 q 694 828 717 819 q 653 840 675 835 q 603 847 631 844 m 242 -74 l 242 -57 l 242 -74 m 15 -128 q 21 -103 18 -124 q 25 -58 24 -82 q 28 -14 26 -35 q 29 14 29 7 q 43 136 33 72 q 63 265 53 200 q 31 536 31 378 q 167 982 31 854 q 297 1068 224 1036 q 340 1119 319 1093 q 378 1175 360 1146 q 382 1176 379 1178 q 382 1172 385 1175 q 347 1120 367 1144 q 308 1072 328 1096 q 521 1110 401 1110 q 532 1149 528 1129 q 538 1188 536 1168 q 540 1190 538 1190 q 543 1188 543 1190 q 538 1149 542 1168 q 528 1110 535 1129 q 611 1107 571 1110 q 688 1099 651 1104 q 692 1126 690 1113 q 694 1153 693 1139 q 697 1156 694 1156 q 700 1153 700 1156 q 697 1126 699 1139 q 693 1099 696 1113 q 778 1081 740 1092 q 843 1060 815 1071 q 860 1103 851 1081 q 876 1150 869 1125 q 879 1153 876 1153 q 882 1150 882 1153 q 866 1101 875 1122 q 849 1057 857 1079 q 854 1054 851 1056 q 860 1051 857 1053 q 874 1036 867 1047 q 881 1015 881 1025 l 881 814 q 863 777 881 789 q 822 776 846 765 q 806 785 814 781 q 789 792 797 789 q 778 732 783 761 q 769 674 774 703 q 863 604 825 646 q 884 687 874 644 q 907 778 894 729 q 931 856 917 818 q 953 935 946 894 q 956 938 953 938 q 958 935 958 938 q 937 856 951 893 q 913 778 922 818 q 889 684 900 728 q 868 600 878 640 q 951 350 951 504 q 907 162 951 239 q 778 40 863 85 q 775 13 775 26 q 775 -14 775 0 q 779 -102 775 -57 q 797 -179 783 -147 q 796 -183 799 -182 q 792 -182 793 -185 q 774 -102 778 -147 q 769 -14 769 -57 q 769 11 769 -1 q 772 38 769 25 q 615 -8 706 4 q 603 -81 607 -47 q 607 -133 600 -114 q 605 -137 607 -136 q 601 -136 603 -139 q 598 -82 594 -115 q 610 -10 601 -49 q 553 -15 582 -12 q 492 -17 524 -17 q 415 -12 450 -17 q 413 -36 414 -24 q 411 -61 413 -49 q 413 -114 408 -86 q 408 -165 417 -142 q 404 -167 407 -168 q 403 -162 401 -165 q 407 -112 411 -140 q 406 -61 403 -85 q 408 -36 407 -49 q 410 -12 408 -24 q 246 33 317 -3 q 248 -12 246 10 q 251 -58 250 -35 q 251 -68 251 -61 q 249 -78 251 -75 l 247 -79 q 248 -122 247 -101 q 250 -161 249 -142 q 247 -164 250 -164 q 244 -161 244 -164 q 243 -122 243 -143 q 242 -82 243 -103 q 236 -75 239 -82 q 236 -56 235 -68 q 239 -36 238 -43 l 240 -33 l 240 -32 q 242 -29 242 -29 q 243 -29 243 -29 q 242 3 243 -12 q 240 36 240 19 q 146 110 186 65 q 67 253 96 167 q 48 130 57 190 q 35 14 39 69 q 31 -49 32 -18 q 25 -112 31 -81 q 22 -126 24 -115 q 14 -133 21 -136 q 12 -130 11 -132 q 15 -128 13 -128 m 196 1172 q 176 1135 189 1149 q 151 1103 163 1122 q 122 1026 132 1064 q 101 946 113 988 q 99 926 99 936 q 97 908 99 918 q 94 891 96 899 q 88 879 93 883 q 83 880 85 878 q 85 885 82 882 q 92 904 92 889 q 93 928 92 919 q 96 946 93 935 q 106 990 100 967 q 119 1038 113 1014 q 136 1084 126 1063 q 158 1122 146 1106 q 177 1147 168 1136 q 190 1175 186 1158 q 193 1176 190 1178 q 196 1172 196 1175 "},"7":{"ha":967,"x_min":-12,"x_max":986,"o":"m 479 651 q 476 714 478 683 q 474 776 475 744 l 315 776 q 307 710 311 740 q 278 497 289 599 q 265 281 267 396 q 313 375 289 329 q 364 465 338 421 q 479 651 415 554 m 479 776 q 482 717 481 747 q 485 658 483 688 q 525 717 504 688 q 568 776 546 747 l 479 776 m 161 1143 q 149 1116 154 1129 q 139 1089 143 1103 l 211 1089 q 222 1123 217 1106 q 233 1156 228 1140 q 238 1157 235 1158 q 239 1153 240 1156 q 228 1122 233 1138 q 217 1089 222 1106 l 344 1089 q 347 1113 346 1100 q 349 1138 349 1125 q 351 1140 349 1140 q 354 1138 354 1140 q 353 1113 354 1125 q 350 1089 351 1100 l 472 1089 q 478 1126 475 1107 q 486 1168 482 1144 q 489 1171 486 1171 q 492 1168 492 1171 q 484 1126 488 1144 q 478 1089 481 1107 l 582 1089 q 576 1117 579 1103 q 569 1147 572 1131 q 571 1150 569 1150 q 575 1147 574 1150 q 588 1089 581 1115 l 714 1089 q 701 1134 707 1111 q 690 1183 696 1157 q 692 1186 690 1186 q 696 1183 694 1186 q 707 1135 701 1158 q 719 1089 713 1111 l 871 1089 q 858 1154 863 1119 q 861 1157 858 1157 q 864 1154 864 1157 q 876 1089 868 1119 l 904 1089 q 933 1076 921 1089 q 946 1047 946 1064 l 946 911 q 967 857 957 883 q 985 803 978 831 q 983 799 986 800 q 979 800 981 797 q 964 849 972 825 q 946 896 956 872 l 946 851 q 868 742 907 803 q 881 703 875 722 q 894 664 888 685 q 908 625 901 643 q 922 590 915 607 q 935 558 929 574 q 944 522 940 542 q 942 519 944 519 q 939 522 940 519 q 930 555 936 539 q 917 588 924 571 q 903 623 910 606 q 889 661 896 640 q 864 736 876 700 q 795 621 829 682 q 729 490 761 560 q 717 465 722 478 q 706 440 713 453 q 711 406 708 424 q 717 369 714 389 q 741 260 726 310 q 764 149 756 211 q 767 117 767 128 q 771 92 768 107 q 781 23 775 65 q 795 -62 786 -19 q 819 -142 804 -106 q 856 -196 833 -179 q 857 -201 858 -199 q 853 -201 856 -203 q 815 -146 829 -183 q 790 -65 800 -108 q 775 22 781 -21 q 765 92 769 64 q 762 117 763 107 q 758 149 761 128 q 736 260 751 211 q 711 369 721 310 q 706 400 708 385 q 701 431 704 415 q 624 237 660 336 q 558 31 589 138 q 542 8 554 17 q 563 -77 550 -35 q 596 -143 576 -119 q 595 -147 597 -146 q 590 -146 593 -149 q 558 -80 571 -122 q 536 6 544 -37 q 518 0 529 0 l 293 0 q 318 -110 301 -57 q 369 -203 335 -162 q 369 -207 371 -206 q 364 -206 367 -208 q 313 -112 331 -165 q 288 0 296 -58 l 206 0 q 169 17 182 0 q 167 58 157 35 q 212 165 189 113 q 260 268 235 217 q 271 492 260 388 q 301 710 282 597 q 306 742 304 725 q 310 776 307 760 l 161 776 q 156 703 158 740 q 154 631 154 667 q 158 573 154 597 q 163 515 163 549 q 164 292 165 401 q 163 71 163 182 q 165 -11 163 26 q 169 -94 167 -49 q 171 -116 169 -106 q 174 -135 172 -126 l 175 -149 l 175 -153 l 175 -154 q 172 -157 175 -157 q 169 -153 169 -157 l 169 -149 l 168 -135 q 165 -116 167 -126 q 164 -94 164 -106 q 159 -11 161 -49 q 157 71 157 26 q 158 292 157 182 q 157 515 160 401 q 153 573 157 549 q 149 631 149 597 q 151 703 149 667 q 156 776 153 740 l 82 776 q 58 784 69 776 q 43 804 47 792 l 42 797 q 6 554 18 672 q -7 303 -7 436 q -3 217 -7 257 q 6 138 0 176 q 18 60 11 99 q 31 -19 25 22 q 34 -65 33 -43 q 36 -106 35 -86 q 39 -143 38 -125 q 47 -179 40 -161 q 46 -183 49 -182 q 42 -182 43 -185 q 34 -144 36 -162 q 31 -106 32 -125 q 28 -65 29 -86 q 25 -19 28 -43 q 13 60 19 22 q 0 138 6 99 q -9 217 -6 176 q -12 303 -12 257 q 0 554 -12 436 q 36 797 13 672 q 40 817 39 811 l 40 818 l 40 1047 q 53 1076 40 1064 q 82 1089 65 1089 l 133 1089 q 156 1146 142 1118 q 160 1147 157 1149 q 161 1143 163 1146 "},"8":{"ha":999,"x_min":-4,"x_max":1014,"o":"m 499 843 q 427 826 454 843 q 400 776 400 810 q 426 728 400 744 q 499 711 453 711 q 569 728 543 711 q 596 776 596 744 q 569 826 596 808 q 499 843 543 843 m 565 451 q 581 442 574 447 q 596 432 589 438 q 565 451 582 446 m 431 260 q 403 288 417 275 q 375 317 390 301 q 431 260 388 276 m 372 328 q 408 292 390 310 q 443 256 425 275 q 500 249 468 249 q 594 276 561 249 q 626 356 626 303 q 610 417 626 392 q 576 438 593 428 q 542 458 560 449 q 499 463 521 463 q 369 356 369 463 q 370 342 369 349 q 372 328 371 335 m 3 329 q 20 303 13 317 q 35 276 28 290 q 31 333 31 303 q 49 454 31 401 l 26 476 q 25 480 24 478 q 29 479 26 482 q 41 470 36 475 q 51 460 46 465 q 113 551 74 514 q 76 585 94 569 q 32 614 57 600 q 31 619 29 617 q 35 619 32 621 q 78 590 60 606 q 117 556 97 574 q 144 578 129 568 q 176 600 160 589 q 98 691 122 639 q 72 799 74 743 q 47 815 60 807 q 21 831 35 824 q 19 835 18 833 q 24 836 21 838 q 49 822 36 829 q 72 806 61 814 q 99 925 72 872 q 36 988 68 951 q 37 992 35 990 q 42 990 39 993 q 101 929 68 957 q 197 1032 132 988 q 223 1048 210 1040 q 251 1063 236 1056 q 170 1111 207 1088 q 90 1161 133 1135 q 89 1166 88 1164 q 93 1167 90 1168 q 175 1115 138 1139 q 258 1065 213 1092 q 342 1093 297 1082 q 440 1107 388 1104 q 376 1136 408 1121 q 310 1174 343 1151 q 308 1178 307 1176 q 313 1179 310 1181 q 383 1139 349 1156 q 453 1108 418 1122 q 475 1110 464 1110 q 499 1110 488 1110 q 797 1032 678 1110 q 922 840 910 958 q 964 790 946 815 q 990 742 982 765 q 989 738 992 739 q 985 739 986 736 q 960 785 976 763 q 924 832 944 808 q 925 818 925 825 q 925 804 925 811 q 899 692 925 744 q 819 601 872 639 l 822 597 q 860 570 842 585 q 896 538 879 556 l 894 538 q 946 460 926 506 q 965 436 957 449 q 987 396 976 417 q 1013 358 997 375 q 1012 354 1014 356 q 1007 356 1010 353 q 982 393 992 372 q 960 433 972 414 q 956 439 957 436 q 953 444 956 442 q 968 343 968 396 q 936 186 968 254 q 956 153 946 169 q 975 118 965 136 q 974 114 976 115 q 969 115 972 113 q 952 148 961 132 q 933 181 943 164 q 874 99 911 136 q 930 28 904 64 q 969 -43 956 -7 q 968 -47 971 -46 q 964 -46 965 -49 q 925 26 951 -10 q 869 94 899 61 q 669 0 793 25 q 747 -90 710 -44 q 814 -187 785 -135 q 813 -192 815 -190 q 808 -190 811 -193 q 741 -92 779 -137 q 663 -1 703 -46 q 499 -17 586 -17 q 447 -15 472 -17 q 397 -11 421 -14 q 405 -43 401 -26 q 411 -75 408 -60 q 424 -119 417 -99 q 447 -160 431 -140 q 447 -164 449 -162 q 442 -162 444 -165 q 411 -99 418 -135 q 396 -29 404 -64 q 392 -11 394 -22 q 185 54 269 3 q 208 21 197 38 q 231 -15 219 4 q 265 -78 247 -47 q 292 -143 282 -108 q 292 -153 292 -146 q 296 -171 293 -161 q 300 -183 297 -174 q 306 -192 303 -192 q 314 -185 313 -193 q 317 -175 315 -178 q 319 -165 317 -171 q 324 -164 322 -162 q 325 -168 326 -165 q 319 -187 321 -175 q 306 -197 317 -199 q 297 -190 300 -197 q 291 -174 293 -183 q 288 -157 289 -165 q 286 -146 288 -149 q 259 -80 276 -110 q 225 -18 242 -50 q 200 24 214 4 q 171 63 186 43 q 38 257 64 133 q 19 292 29 275 q -3 326 10 310 q -2 331 -4 329 q 3 329 0 332 m 486 1214 q 631 1146 565 1178 q 757 1077 697 1114 q 872 994 817 1040 q 989 883 928 947 q 990 879 992 881 q 986 881 988 878 q 869 990 925 944 q 754 1072 814 1036 q 628 1140 694 1108 q 483 1208 563 1172 q 482 1213 481 1210 q 486 1214 483 1215 m 36 133 q 48 76 42 108 q 64 13 54 44 q 85 -49 74 -19 q 114 -99 97 -78 q 113 -103 115 -101 q 108 -101 111 -104 q 80 -51 92 -81 q 58 10 68 -22 q 42 75 49 43 q 31 133 36 107 q 32 136 29 136 q 36 133 35 136 "},"9":{"ha":982,"x_min":-12,"x_max":951,"o":"m 236 285 q 241 344 239 314 q 246 404 243 374 q 147 461 190 425 q 142 397 144 428 q 132 338 139 365 q 128 319 131 331 q 163 317 142 325 q 199 299 182 307 q 236 285 217 292 m 425 626 q 424 729 425 678 q 417 831 424 781 q 368 735 368 800 q 425 626 368 654 m 378 246 q 386 283 382 267 q 396 328 392 307 q 404 374 400 350 q 250 403 318 378 q 242 282 247 342 q 265 273 253 278 q 290 264 278 268 l 289 264 q 330 253 308 257 q 378 246 351 249 m 607 685 q 599 797 607 743 q 594 810 596 806 q 492 850 575 850 q 421 833 450 850 q 429 730 428 782 q 431 625 431 678 q 492 614 457 614 q 578 639 536 614 q 607 685 596 649 m 549 267 q 555 306 551 286 q 561 347 558 326 q 565 366 564 357 q 568 385 565 375 q 439 372 510 372 l 410 372 q 401 328 406 350 q 392 283 397 306 l 383 246 q 420 244 401 244 q 458 243 439 243 q 549 267 514 243 m 575 386 q 571 367 572 376 q 567 347 569 357 q 560 309 564 328 q 554 271 557 290 q 590 328 579 290 q 599 360 596 344 q 606 394 603 376 q 590 390 599 392 q 575 386 582 389 m 610 744 q 612 722 611 733 q 613 700 613 711 l 615 708 q 613 728 614 719 q 610 744 611 736 m 817 1001 q 780 1083 797 1043 q 744 1174 763 1124 q 746 1178 743 1176 q 750 1176 749 1179 q 788 1080 769 1122 q 826 992 807 1038 q 831 987 829 989 q 836 982 833 985 q 951 557 951 854 q 869 176 951 307 l 861 131 q 841 62 854 99 q 811 -12 828 25 q 778 -84 796 -49 q 747 -151 761 -119 q 743 -153 746 -154 q 742 -149 740 -151 q 774 -82 757 -118 q 806 -10 790 -46 q 835 63 822 28 q 856 131 849 99 q 859 148 858 139 q 863 165 860 157 q 817 111 842 133 q 656 15 749 47 q 624 -81 643 -33 q 594 -174 606 -129 q 590 -175 593 -176 q 589 -171 588 -174 q 619 -81 600 -128 q 649 13 638 -33 q 578 -5 615 1 q 501 -14 542 -11 q 456 -126 485 -71 q 428 -175 440 -154 q 400 -218 415 -196 q 395 -219 397 -221 q 394 -215 393 -218 q 422 -172 410 -193 q 450 -124 435 -151 q 496 -14 479 -68 q 476 -15 486 -15 q 457 -15 468 -15 q 313 -7 379 -15 q 275 -101 294 -56 q 233 -182 256 -146 q 228 -183 231 -185 q 228 -179 226 -182 q 269 -99 250 -143 q 307 -7 289 -54 q 237 5 269 -1 q 178 19 204 11 q 151 -65 167 -24 q 114 -144 136 -107 q 109 -146 111 -147 q 108 -142 107 -144 q 146 -63 131 -104 q 174 21 161 -22 q 125 42 143 32 q 110 58 118 46 q 103 78 103 69 l 103 231 q 54 75 79 151 q 21 -83 29 -1 q 18 -86 21 -86 q 15 -83 15 -86 q 51 85 25 4 q 103 249 78 165 l 103 279 q 121 317 103 306 q 126 338 124 324 q 137 399 133 367 q 142 465 140 431 q 65 569 92 508 q 36 482 54 518 q 13 439 25 460 q -6 394 1 418 q -10 392 -7 392 q -11 394 -12 392 q 15 456 -3 428 q 44 518 33 485 q 53 548 50 533 q 61 579 57 563 q 31 742 31 649 q 56 889 31 824 q 51 910 53 900 q 47 929 50 919 q 28 1028 36 978 q 19 1133 19 1078 q 22 1136 19 1136 q 25 1133 25 1136 q 37 1014 25 1071 q 60 899 49 957 q 121 990 83 953 q 114 1024 118 1007 q 106 1056 110 1040 q 90 1111 99 1083 q 79 1167 82 1139 q 82 1169 79 1169 q 85 1167 85 1169 q 96 1113 88 1139 q 111 1058 104 1086 q 119 1027 115 1043 q 125 994 122 1011 q 215 1057 163 1032 q 187 1117 200 1086 q 171 1189 174 1149 q 174 1192 171 1192 q 176 1189 176 1192 q 192 1119 179 1149 q 219 1058 204 1089 q 315 1092 263 1079 q 300 1139 306 1114 q 294 1192 294 1164 q 297 1194 294 1194 q 300 1192 300 1194 q 306 1140 300 1164 q 321 1093 311 1115 q 461 1110 386 1108 q 425 1185 439 1149 q 426 1189 424 1188 q 431 1188 429 1190 q 468 1110 444 1149 l 492 1110 q 649 1092 581 1110 q 621 1137 635 1115 q 592 1182 607 1158 q 592 1186 590 1185 q 597 1185 594 1188 q 627 1138 613 1161 q 656 1089 642 1114 q 817 1001 753 1064 "},"\\u0007":{"ha":1389,"x_min":0,"x_max":0,"o":""},"\\u0005":{"ha":767,"x_min":29,"x_max":738,"o":"m 382 872 q 153 946 256 872 q 32 1175 50 1021 q 42 1203 29 1192 q 72 1214 54 1214 l 208 1214 q 234 1205 222 1214 q 249 1183 246 1196 q 297 1103 261 1124 q 382 1083 332 1083 q 471 1103 435 1083 q 519 1185 507 1124 q 533 1206 522 1197 q 558 1214 544 1214 l 694 1214 q 726 1203 714 1214 q 735 1175 738 1192 q 614 944 715 1018 q 382 872 515 872 "},"\\u0006":{"ha":310,"x_min":31,"x_max":279,"o":"m 65 1089 l 244 1089 q 269 1079 258 1089 q 279 1056 279 1069 l 279 878 q 269 854 279 864 q 246 844 260 844 l 65 844 q 41 854 51 844 q 31 878 31 864 l 31 1056 q 40 1079 31 1069 q 65 1089 50 1089 "},"\\b":{"ha":536,"x_min":31,"x_max":506,"o":"m 268 1393 q 435 1322 364 1393 l 435 1324 q 506 1156 506 1254 q 435 986 506 1057 l 435 988 q 268 918 363 918 q 100 988 169 918 q 31 1156 31 1057 q 100 1322 31 1253 q 268 1393 171 1393 m 268 1221 q 222 1202 240 1221 q 203 1156 203 1183 q 222 1109 203 1128 q 268 1090 240 1090 q 315 1109 296 1090 q 333 1156 333 1128 q 315 1202 333 1183 q 268 1221 296 1221 "},"\\n":{"ha":940,"x_min":25,"x_max":917,"o":"m 38 926 l 208 1196 q 225 1208 214 1203 q 246 1214 236 1214 l 506 1214 q 544 1194 533 1214 q 538 1156 556 1175 l 279 886 q 265 877 275 882 q 247 872 254 872 l 74 872 q 37 890 49 872 q 38 926 25 907 m 401 926 l 572 1196 q 588 1208 576 1203 q 608 1214 600 1214 l 868 1214 q 906 1194 896 1214 q 899 1156 917 1175 l 643 886 q 628 877 639 882 q 611 872 618 872 l 438 872 q 401 890 413 872 q 401 926 389 907 "},"\\u000b":{"ha":658,"x_min":33,"x_max":632,"o":"m 576 -57 l 576 -82 q 569 -104 576 -93 q 550 -118 561 -115 q 444 -162 492 -137 q 358 -219 397 -187 q 290 -332 290 -272 q 309 -381 290 -364 q 354 -397 328 -397 q 428 -374 382 -397 q 521 -314 474 -350 q 553 -306 536 -303 q 579 -325 569 -310 l 624 -397 q 630 -424 632 -410 q 617 -449 628 -439 q 461 -540 546 -501 q 285 -578 376 -578 q 193 -564 236 -578 q 114 -521 150 -550 q 33 -364 33 -460 q 164 -135 33 -215 q 526 -18 282 -64 q 561 -26 546 -15 q 576 -57 576 -37 "},"\\f":{"ha":782,"x_min":25,"x_max":757,"o":"m 74 1214 l 254 1214 q 273 1210 261 1214 q 288 1200 285 1206 l 392 1075 l 493 1200 q 508 1210 497 1206 q 526 1214 519 1214 l 708 1214 q 746 1197 735 1214 q 743 1160 757 1179 l 557 890 q 541 878 551 883 q 522 872 531 872 l 261 872 q 242 878 253 872 q 226 890 231 883 l 39 1160 q 36 1197 25 1179 q 74 1214 47 1214 "},"\\r":{"ha":326,"x_min":31,"x_max":296,"o":"m 263 0 l 67 0 q 41 12 51 0 q 31 42 31 24 l 31 756 q 40 785 31 774 q 65 797 50 797 l 261 797 q 285 785 275 797 q 296 756 296 774 l 296 42 q 286 12 296 24 q 263 0 276 0 "},"\\u0019":{"ha":1235,"x_min":-161,"x_max":1474,"o":"m 567 314 q 688 313 628 313 q 814 313 749 313 q 722 353 769 339 q 625 381 674 368 l 567 314 m 253 299 q 234 294 243 296 q 214 289 225 292 q 236 278 225 282 l 253 299 m 589 688 q 558 680 574 683 q 528 672 543 676 q 451 651 483 661 q 375 629 419 640 q 240 599 301 611 q 121 578 179 586 q 1 567 63 571 q -133 563 -61 563 q 90 515 -18 536 q 317 469 197 494 q 353 461 336 465 q 386 453 371 457 l 589 688 m 249 1100 q 284 1048 260 1071 q 339 1006 308 1025 q 401 973 369 988 q 460 946 433 958 q 586 892 521 918 q 718 838 651 865 l 940 1096 q 956 1105 944 1100 q 972 1110 967 1110 l 1160 1110 q 1200 1085 1189 1110 q 1192 1039 1211 1061 l 629 385 q 730 356 681 372 q 825 313 779 340 q 824 307 831 307 q 690 308 754 307 q 563 308 626 308 l 481 213 q 506 208 493 210 q 529 203 518 206 q 678 171 610 186 q 814 141 747 156 q 951 111 881 126 q 1108 79 1022 96 q 1148 71 1131 75 q 1183 63 1165 67 q 1217 56 1200 60 q 1257 49 1235 53 q 1322 38 1296 42 q 1371 31 1349 33 q 1416 24 1393 28 q 1471 13 1439 19 q 1474 8 1474 11 q 1471 7 1474 7 q 1386 -3 1425 0 q 1311 -10 1347 -7 q 1236 -20 1275 -14 q 1153 -39 1197 -26 q 1101 -56 1124 -47 q 1058 -74 1079 -64 q 1013 -93 1036 -83 q 963 -112 990 -103 q 906 -129 936 -121 q 847 -147 876 -137 q 789 -167 817 -156 q 739 -193 761 -178 q 735 -192 736 -194 q 736 -187 733 -190 q 787 -161 758 -172 q 845 -141 815 -150 q 904 -124 875 -132 q 960 -107 933 -117 q 1010 -87 988 -97 q 1055 -68 1033 -78 q 1099 -50 1076 -58 q 1150 -33 1121 -42 q 1235 -15 1197 -21 q 1310 -4 1274 -8 q 1379 1 1344 -1 q 1454 10 1414 4 q 1406 19 1426 15 q 1365 26 1386 22 q 1318 33 1343 29 q 1257 43 1293 36 q 1217 51 1235 47 q 1183 58 1200 54 q 1148 65 1165 61 q 1108 74 1131 69 q 951 106 1022 90 q 814 135 881 121 q 678 165 747 150 q 529 197 610 181 q 502 203 515 200 q 476 208 489 206 l 294 -3 q 279 -12 290 -7 q 261 -17 268 -17 l 75 -17 q 35 8 46 -17 q 43 54 24 32 l 232 274 q 219 280 225 276 q 206 286 213 283 q 206 292 200 289 q 258 304 236 300 l 382 447 q 351 456 367 451 q 317 464 336 460 q 194 490 253 478 q 77 513 135 501 q -39 536 19 524 q -158 563 -97 549 q -161 565 -161 564 q -158 568 -161 568 q -15 572 -79 568 q 111 583 50 575 q 235 603 172 590 q 375 635 299 615 q 450 656 418 646 q 525 678 482 667 q 560 686 543 682 q 594 694 576 690 l 714 833 q 583 886 647 860 q 457 940 518 913 q 399 968 431 953 q 335 1002 367 983 q 279 1044 304 1021 q 243 1097 254 1068 q 244 1101 242 1100 q 249 1100 247 1103 "},"\\u001a":{"ha":1068,"x_min":-178,"x_max":1428,"o":"m 692 957 q 735 1053 692 1018 q 856 1089 779 1089 q 976 1053 932 1089 q 1021 957 1021 1018 q 977 860 1021 896 q 857 825 933 825 q 736 860 781 825 q 692 957 692 896 m 1021 617 l 1026 617 q 1179 613 1103 617 q 1331 601 1256 608 q 1255 614 1292 608 q 1171 629 1218 619 q 1093 645 1131 638 q 1021 661 1056 653 l 1021 617 m 656 608 l 692 610 l 692 735 l 656 743 l 656 611 l 656 608 m 492 386 q 589 408 540 397 q 692 432 638 419 l 692 556 q 602 565 647 560 q 511 569 557 569 l 492 569 l 492 386 m 165 297 q 111 281 136 289 q 54 264 86 274 q 2 251 39 260 q -74 228 -35 243 q -143 193 -114 213 q -172 147 -172 174 q -161 131 -172 136 q -142 122 -150 125 q -28 85 -82 96 q 93 64 25 75 q 130 59 113 61 q 165 54 147 57 l 165 297 m 692 426 q 589 403 638 414 q 492 381 540 392 l 492 44 q 592 57 549 47 q 692 83 636 67 l 692 426 m 692 604 l 654 603 q 640 578 651 588 q 614 569 629 569 l 601 569 q 647 565 625 567 q 692 561 668 564 l 692 604 m 221 1004 q 108 979 164 992 q -3 943 51 967 q 81 897 39 915 q 164 863 122 878 q 221 1004 169 949 m 910 1136 q 726 1121 818 1136 q 542 1085 633 1106 q 633 1065 599 1081 q 653 1050 644 1063 q 663 1026 663 1038 l 663 876 q 650 846 663 858 q 618 833 638 833 q 614 834 618 833 q 607 835 610 835 q 572 844 593 839 q 518 850 550 850 q 499 843 507 850 q 490 818 490 836 l 490 786 l 613 786 q 640 775 628 786 q 656 749 653 764 l 692 740 l 692 778 q 704 807 692 794 q 735 819 717 819 l 978 819 q 1008 807 994 819 q 1021 778 1021 794 l 1021 667 q 1094 651 1057 658 q 1171 635 1131 643 q 1238 622 1207 628 q 1297 613 1268 617 q 1357 603 1326 608 q 1425 592 1388 599 q 1428 588 1428 590 q 1425 586 1428 586 q 1228 604 1329 597 q 1026 611 1126 611 l 1021 611 l 1021 42 q 1008 13 1021 25 q 979 0 996 0 l 736 0 q 705 13 718 0 q 692 42 692 25 l 692 81 q 636 55 663 72 q 585 16 610 38 q 539 -28 561 -6 q 496 -72 517 -51 q 438 -136 460 -110 q 397 -183 415 -162 q 360 -224 378 -204 q 315 -271 342 -244 q 501 -183 408 -233 q 678 -89 594 -133 q 682 -92 682 -87 q 653 -191 674 -140 q 610 -292 632 -242 q 573 -391 589 -342 q 560 -487 557 -440 q 557 -490 560 -490 q 554 -487 554 -490 q 567 -391 551 -440 q 604 -292 583 -342 q 646 -194 625 -243 q 675 -97 667 -146 q 494 -192 589 -142 q 306 -282 400 -243 q 301 -281 303 -283 q 303 -278 300 -279 q 351 -227 332 -249 q 390 -184 371 -206 q 432 -136 408 -162 q 493 -69 456 -110 q 561 2 526 -33 q 639 63 596 38 q 568 47 603 53 q 492 39 533 42 q 478 12 490 24 q 450 0 465 0 l 207 0 q 177 13 189 0 q 165 42 165 25 l 165 49 q 129 53 147 51 q 93 58 111 56 q 26 69 57 64 q -33 81 -4 74 q -92 97 -62 88 q -156 121 -122 106 q -171 131 -164 125 q -178 147 -178 136 q -147 197 -178 176 q -76 233 -115 218 q 1 257 -36 249 q 51 269 38 265 q 110 287 85 279 q 165 304 135 294 l 165 569 l 74 569 q 44 581 57 569 q 31 611 31 593 l 31 744 q 43 774 31 761 q 72 786 56 786 l 164 786 l 164 844 l 164 857 q 76 892 119 872 q -10 940 33 913 q -10 946 -15 943 q 108 984 49 971 q 228 1013 168 997 q 458 1089 307 1089 q 492 1088 476 1089 q 522 1086 507 1088 q 716 1125 618 1108 q 910 1142 814 1142 q 913 1139 913 1142 q 910 1136 913 1136 "},"\\u001b":{"ha":1060,"x_min":19,"x_max":1329,"o":"m 1021 747 q 1142 778 1082 763 q 1264 801 1201 794 q 1142 808 1201 804 q 1021 819 1082 813 l 1021 747 m 663 658 q 678 673 669 665 q 693 688 686 681 l 693 696 q 674 687 683 692 q 654 678 664 682 l 654 656 l 663 658 m 513 474 q 514 496 514 485 q 514 518 514 507 q 502 512 507 515 q 490 506 497 508 l 490 443 l 513 474 m 490 513 l 515 525 q 519 522 519 526 q 519 501 519 511 q 518 482 519 493 q 557 533 538 510 q 585 569 569 551 l 490 569 l 490 513 m 513 464 l 490 433 l 490 288 q 503 375 497 332 q 513 464 510 418 m 693 681 l 674 661 l 693 667 l 693 681 m 769 743 q 790 754 781 749 q 810 767 799 760 q 791 756 801 763 q 769 743 781 750 m 654 683 q 693 703 674 692 l 693 863 l 660 867 q 645 842 657 851 q 618 833 633 833 q 613 834 617 833 q 608 835 610 835 q 571 844 594 839 q 519 850 547 850 q 499 843 507 850 q 490 818 490 836 l 490 786 l 613 786 q 642 774 629 786 q 654 744 654 761 l 654 683 m 656 650 l 654 650 l 654 649 l 656 650 m 693 661 l 665 653 l 654 642 l 654 611 q 642 581 654 593 q 613 569 629 569 l 592 569 q 576 550 583 560 q 561 531 568 540 q 540 501 550 515 q 518 472 529 488 q 507 360 515 414 q 490 253 499 307 l 490 42 q 471 7 490 19 q 525 -42 476 -42 q 567 -28 543 -42 q 615 3 592 -15 q 660 42 639 22 q 693 75 681 63 l 693 76 l 693 661 m 22 982 q 111 973 71 979 q 189 958 151 967 q 291 1056 221 1024 q 463 1089 361 1089 q 563 1083 521 1089 q 633 1065 606 1076 q 653 1050 644 1063 q 661 1026 661 1038 l 661 876 l 661 872 l 693 868 l 693 1047 q 706 1076 693 1064 q 736 1089 718 1089 l 979 1089 q 1008 1076 996 1089 q 1021 1047 1021 1064 l 1021 825 q 1326 804 1171 810 q 1329 801 1329 804 q 1326 799 1329 799 q 1170 780 1243 799 q 1021 742 1097 761 l 1021 42 q 1008 13 1021 25 q 979 0 996 0 l 771 0 l 768 -21 q 766 -101 764 -57 q 763 -181 768 -146 q 760 -183 763 -183 q 757 -181 757 -183 q 760 -101 763 -146 q 763 -21 758 -57 l 765 0 l 736 0 q 706 13 718 0 q 693 42 693 25 l 693 68 q 660 35 681 56 q 615 -3 639 15 q 568 -34 592 -21 q 525 -47 544 -47 q 483 -35 496 -47 q 465 4 469 -22 q 449 0 458 0 l 206 0 q 176 13 188 0 q 164 42 164 25 l 164 569 l 72 569 q 43 581 56 569 q 31 611 31 593 l 31 744 q 43 774 31 761 q 72 786 56 786 l 164 786 l 164 844 q 186 953 164 908 q 110 968 149 963 q 22 976 71 974 q 19 979 19 976 q 22 982 19 982 "},"\\u001c":{"ha":1146,"x_min":31,"x_max":1115,"o":"m 771 769 l 771 608 q 763 585 771 597 q 743 569 754 572 l 542 488 l 542 322 l 1072 322 q 1103 310 1090 322 q 1115 281 1115 299 l 1115 42 q 1103 13 1115 25 q 1072 0 1090 0 l 196 0 q 165 13 178 0 q 153 42 153 25 l 153 333 l 88 307 q 48 311 65 299 q 31 347 31 324 l 31 508 q 38 532 31 519 q 57 549 46 544 l 153 586 l 153 1047 q 165 1076 153 1064 q 196 1089 178 1089 l 500 1089 q 530 1076 518 1089 q 542 1047 542 1064 l 542 742 l 713 810 q 753 806 735 818 q 771 769 771 793 "},"\\u001d":{"ha":607,"x_min":31,"x_max":576,"o":"m 53 586 l 150 640 l 150 1047 q 162 1076 150 1064 q 189 1089 174 1089 l 415 1089 q 442 1076 431 1089 q 454 1047 454 1064 l 454 804 l 517 839 q 558 839 539 851 q 576 801 576 826 l 576 656 q 569 634 576 646 q 554 618 563 622 l 456 565 l 456 42 q 444 13 456 25 q 417 0 432 0 l 190 0 q 163 13 175 0 q 151 42 151 25 l 151 401 l 89 367 q 49 367 67 354 q 31 404 31 379 l 31 550 q 38 571 31 560 q 53 586 44 582 "},"\\u001e":{"ha":1153,"x_min":31,"x_max":1122,"o":"m 1122 268 l 1122 42 q 1110 13 1122 25 q 1081 0 1097 0 l 74 0 q 43 13 56 0 q 31 42 31 25 l 31 253 q 35 267 31 257 q 43 282 40 278 l 568 801 l 92 801 q 63 814 75 801 q 50 844 50 826 l 50 1047 q 63 1076 50 1064 q 92 1089 75 1089 l 1065 1089 q 1094 1076 1082 1089 q 1107 1047 1107 1064 l 1107 849 q 1103 832 1107 843 q 1094 817 1099 821 l 576 310 l 1081 310 q 1110 297 1097 310 q 1122 268 1122 285 m 271 1457 l 485 1443 q 506 1424 489 1443 q 541 1381 522 1404 q 574 1338 560 1357 q 589 1318 589 1318 l 690 1443 q 706 1453 694 1449 q 724 1457 717 1457 l 906 1457 q 943 1440 932 1457 q 940 1403 954 1422 l 754 1133 q 738 1121 749 1126 q 719 1115 728 1115 l 458 1115 q 439 1121 450 1115 q 424 1133 428 1126 l 236 1403 q 233 1441 222 1422 q 271 1457 244 1460 "},"\\u001f":{"ha":811,"x_min":31,"x_max":788,"o":"m 90 797 l 701 797 q 730 785 718 797 q 742 756 742 774 l 742 575 l 469 272 l 715 272 q 744 260 732 272 q 757 231 757 247 l 757 42 q 744 12 757 24 q 715 0 732 0 l 71 0 q 42 12 54 0 q 31 42 31 24 l 31 214 l 303 525 l 90 525 q 62 538 74 525 q 50 567 50 550 l 50 756 q 62 785 50 774 q 90 797 74 797 m 103 1172 l 283 1172 q 302 1168 290 1172 q 317 1158 314 1164 l 421 1033 l 522 1158 q 538 1168 526 1164 q 556 1172 549 1172 l 738 1172 q 776 1155 764 1172 q 772 1118 788 1138 l 586 849 q 570 836 581 842 q 551 831 560 831 l 290 831 q 272 836 282 831 q 256 849 261 842 l 68 1118 q 65 1155 54 1138 q 103 1172 76 1172 "}," ":{"ha":417,"x_min":0,"x_max":0,"o":""},"!":{"ha":317,"x_min":-21,"x_max":333,"o":"m 72 1089 q 71 1138 76 1119 q 72 1142 69 1140 q 76 1140 75 1143 q 78 1089 82 1121 l 143 1089 q 148 1113 146 1101 q 150 1138 150 1125 q 153 1140 150 1140 q 156 1138 156 1140 q 153 1113 156 1125 q 149 1089 151 1101 l 211 1089 l 221 1114 q 225 1115 222 1117 q 226 1111 228 1114 l 217 1089 l 253 1089 l 254 1089 q 258 1103 257 1096 q 260 1118 258 1111 q 263 1121 260 1121 q 265 1118 265 1121 q 263 1103 264 1111 q 260 1088 261 1094 q 278 1074 271 1085 q 286 1047 286 1063 l 286 988 q 296 1029 292 1008 q 303 1072 300 1050 q 306 1075 303 1075 q 308 1072 308 1075 q 299 1019 306 1044 q 286 967 293 993 l 286 838 q 307 851 297 844 q 328 868 317 858 q 332 867 331 869 q 331 863 333 865 q 286 831 308 844 l 286 775 l 281 721 q 304 736 293 728 q 325 758 315 744 q 330 760 328 761 q 331 756 332 758 q 307 731 319 740 q 279 714 294 722 l 250 453 q 255 463 253 458 q 260 474 257 468 q 283 533 274 506 q 299 594 293 561 q 301 597 299 597 q 304 594 304 597 q 289 531 299 560 q 265 471 279 503 l 249 438 l 243 388 q 231 362 240 372 q 210 351 222 351 l 193 351 q 174 327 183 339 q 154 303 165 315 l 239 303 q 253 330 246 315 q 267 360 260 344 q 271 361 268 363 q 272 357 274 360 q 259 328 265 342 q 246 303 253 315 q 269 290 260 303 q 279 260 279 278 l 279 42 q 269 13 279 25 q 246 0 260 0 l 72 0 q 43 21 54 0 q 17 13 28 18 q 13 14 14 11 q 14 18 11 17 q 28 22 21 21 q 42 26 35 24 q 39 42 39 35 l 39 178 q 29 168 33 172 q 19 160 25 164 q 15 159 17 157 q 17 163 14 161 q 27 174 22 168 q 39 185 32 179 l 39 260 q 49 290 39 278 q 72 303 58 303 l 147 303 q 167 327 157 315 q 186 351 176 339 l 108 351 q 75 382 82 351 q 67 364 71 372 q 58 346 63 356 q 54 344 57 343 q 53 349 51 346 q 63 370 58 360 q 74 392 68 381 l 51 586 q 33 541 42 563 q 15 497 24 519 q 11 496 14 494 q 10 500 8 497 q 29 548 19 524 q 50 597 39 572 l 40 683 l 36 674 q 32 672 35 671 q 31 676 29 674 l 39 694 l 31 772 l 31 854 q 10 809 19 831 q -6 767 0 788 q -10 764 -7 764 q -11 767 -12 764 q 6 817 -4 792 q 31 865 17 842 l 31 1010 q 8 995 18 1004 q -14 975 -3 986 q -19 974 -17 972 q -19 978 -21 975 q 31 1017 3 1004 l 31 1047 q 40 1076 31 1064 q 65 1089 50 1089 l 72 1089 "}}}
